<?xml version="1.0" ?><svg id="OBJECT" viewBox="0 0 512 512" xmlns="http://www.w3.org/2000/svg"><defs><style>.cls-1{fill:#bddbff;}.cls-2{fill:#3d9ae2;}.cls-3{fill:#fff;}</style></defs><title/><rect class="cls-1" height="423.5" rx="20" ry="20" width="350" x="81" y="81"/><path class="cls-2" d="M411,512H101a27.54,27.54,0,0,1-27.5-27.5V101A27.54,27.54,0,0,1,101,73.5H411A27.54,27.54,0,0,1,438.5,101V484.5A27.54,27.54,0,0,1,411,512ZM101,88.5A12.52,12.52,0,0,0,88.5,101V484.5A12.52,12.52,0,0,0,101,497H411a12.52,12.52,0,0,0,12.5-12.5V101A12.52,12.52,0,0,0,411,88.5Z"/><rect class="cls-3" height="340" rx="10" ry="10" width="280" x="116" y="123"/><path class="cls-2" d="M386,470.5H126A17.52,17.52,0,0,1,108.5,453V133A17.52,17.52,0,0,1,126,115.5H386A17.52,17.52,0,0,1,403.5,133V453A17.52,17.52,0,0,1,386,470.5Zm-260-340a2.5,2.5,0,0,0-2.5,2.5V453a2.5,2.5,0,0,0,2.5,2.5H386a2.5,2.5,0,0,0,2.5-2.5V133a2.5,2.5,0,0,0-2.5-2.5Z"/><path class="cls-3" d="M176,43H336a20,20,0,0,1,20,20v60a0,0,0,0,1,0,0H156a0,0,0,0,1,0,0V63A20,20,0,0,1,176,43Z"/><path class="cls-2" d="M356,130.5H156a7.5,7.5,0,0,1-7.5-7.5V63A27.54,27.54,0,0,1,176,35.5H336A27.54,27.54,0,0,1,363.5,63v60A7.5,7.5,0,0,1,356,130.5Zm-192.5-15h185V63A12.52,12.52,0,0,0,336,50.5H176A12.52,12.52,0,0,0,163.5,63Z"/><path class="cls-1" d="M246,7.5h20a20,20,0,0,1,20,20V43a0,0,0,0,1,0,0H226a0,0,0,0,1,0,0V27.5A20,20,0,0,1,246,7.5Z"/><path class="cls-2" d="M286,50.5H226a7.5,7.5,0,0,1-7.5-7.5V27.5A27.54,27.54,0,0,1,246,0h20a27.54,27.54,0,0,1,27.5,27.5V43A7.5,7.5,0,0,1,286,50.5Zm-52.5-15h45v-8A12.52,12.52,0,0,0,266,15H246a12.52,12.52,0,0,0-12.5,12.5Z"/><path class="cls-2" d="M326,180.5H186a7.5,7.5,0,0,1-7-10.29l20-50a7.5,7.5,0,0,1,7-4.71H306a7.5,7.5,0,0,1,7,4.71l20,50a7.5,7.5,0,0,1-7,10.29Zm-128.92-15H314.92l-14-35H211.08Z"/><circle class="cls-1" cx="256" cy="293.88" r="70"/><path class="cls-2" d="M256,371.38a77.5,77.5,0,1,1,77.5-77.5A77.59,77.59,0,0,1,256,371.38Zm0-140a62.5,62.5,0,1,0,62.5,62.5A62.57,62.57,0,0,0,256,231.38Z"/><path class="cls-1" d="M343.25,293.88H256V206.63A87.25,87.25,0,0,1,343.25,293.88Z"/><path class="cls-2" d="M343.25,301.38H256a7.5,7.5,0,0,1-7.5-7.5V206.63a7.5,7.5,0,0,1,7.5-7.5,94.85,94.85,0,0,1,94.75,94.75A7.5,7.5,0,0,1,343.25,301.38Zm-79.75-15h71.9a79.87,79.87,0,0,0-71.9-71.9Z"/><path class="cls-1" d="M341,431H171a15,15,0,0,1,0-30H341a15,15,0,0,1,0,30Z"/><path class="cls-2" d="M341,438.5H171a22.5,22.5,0,0,1,0-45H341a22.5,22.5,0,0,1,0,45Zm-170-30a7.5,7.5,0,0,0,0,15H341a7.5,7.5,0,0,0,0-15Z"/></svg>